<svg width="24" height="24" viewBox="0 0 24 24" fill="none" xmlns="http://www.w3.org/2000/svg">
<path d="M2.45407 16.0605C2.73536 16.3417 3.11683 16.4997 3.51457 16.4997C3.91232 16.4997 4.29378 16.3417 4.57507 16.0605L12.0001 8.6355L19.4251 16.0605C19.708 16.3337 20.0869 16.4849 20.4802 16.4815C20.8735 16.4781 21.2497 16.3203 21.5278 16.0422C21.8059 15.7641 21.9637 15.3879 21.9671 14.9946C21.9705 14.6013 21.8193 14.2224 21.5461 13.9395L13.0606 5.454C12.7793 5.17279 12.3978 5.01482 12.0001 5.01482C11.6023 5.01482 11.2209 5.17279 10.9396 5.454L2.45407 13.9395C2.17287 14.2208 2.01489 14.6023 2.01489 15C2.01489 15.3977 2.17287 15.7792 2.45407 16.0605Z" fill="black"/>
</svg>
