<svg width="24" height="24" viewBox="0 0 24 24" fill="none" xmlns="http://www.w3.org/2000/svg">
<path d="M2.45407 7.9395C2.73536 7.65829 3.11683 7.50032 3.51457 7.50032C3.91232 7.50032 4.29378 7.65829 4.57507 7.9395L12.0001 15.3645L19.4251 7.9395C19.708 7.66626 20.0869 7.51507 20.4802 7.51849C20.8735 7.52191 21.2497 7.67966 21.5278 7.95777C21.8059 8.23588 21.9637 8.6121 21.9671 9.0054C21.9705 9.39869 21.8193 9.7776 21.5461 10.0605L13.0606 18.546C12.7793 18.8272 12.3978 18.9852 12.0001 18.9852C11.6023 18.9852 11.2209 18.8272 10.9396 18.546L2.45407 10.0605C2.17287 9.77921 2.01489 9.39775 2.01489 9C2.01489 8.60225 2.17287 8.22079 2.45407 7.9395Z" fill="black"/>
</svg>
