<svg width="24" height="24" viewBox="0 0 24 24" fill="none" xmlns="http://www.w3.org/2000/svg">
<path fill-rule="evenodd" clip-rule="evenodd" d="M18.9699 3.659C18.761 3.45006 18.513 3.28433 18.24 3.17125C17.967 3.05818 17.6744 2.99998 17.3789 2.99998C17.0834 2.99998 16.7909 3.05818 16.5179 3.17125C16.2449 3.28433 15.9969 3.45006 15.7879 3.659L4.84793 14.599C4.1447 15.3024 3.74969 16.2563 3.74978 17.2509C3.74988 18.2455 4.14507 19.1993 4.84842 19.9025C5.55178 20.6057 6.50568 21.0007 7.50028 21.0006C8.49488 21.0005 9.4487 20.6054 10.1519 19.902L17.8449 12.209C17.9871 12.0765 18.1751 12.0044 18.3694 12.0078C18.5637 12.0113 18.7491 12.09 18.8865 12.2274C19.024 12.3648 19.1027 12.5502 19.1061 12.7445C19.1095 12.9388 19.0374 13.1268 18.9049 13.269L11.2119 20.962C10.7268 21.4599 10.1476 21.8564 9.50796 22.1287C8.86833 22.4009 8.181 22.5434 7.48586 22.5479C6.79072 22.5524 6.10161 22.4188 5.45851 22.1549C4.81542 21.8909 4.23114 21.5019 3.73959 21.0103C3.24805 20.5188 2.85901 19.9345 2.59506 19.2914C2.33112 18.6483 2.19752 17.9592 2.20201 17.2641C2.20651 16.5689 2.34901 15.8816 2.62126 15.242C2.8935 14.6023 3.29006 14.0231 3.78793 13.538L14.7269 2.598C15.4303 1.89478 16.3842 1.49977 17.3788 1.49986C18.3734 1.49995 19.3272 1.89515 20.0304 2.5985C20.7336 3.30185 21.1287 4.25575 21.1286 5.25035C21.1285 6.24495 20.7333 7.19878 20.0299 7.902L9.09693 18.835L9.08892 18.843L9.08192 18.85L9.07993 18.852L9.07692 18.854C8.64929 19.2531 8.08301 19.47 7.49815 19.4587C6.91329 19.4474 6.35583 19.2088 5.94396 18.7934C5.53208 18.378 5.29817 17.8185 5.29182 17.2336C5.28546 16.6486 5.50717 16.0842 5.90992 15.66L13.7199 7.85C13.8613 7.71331 14.0507 7.63763 14.2474 7.63924C14.444 7.64086 14.6322 7.71965 14.7713 7.85864C14.9104 7.99763 14.9894 8.1857 14.9912 8.38235C14.993 8.579 14.9175 8.76848 14.7809 8.91L6.97093 16.72C6.8293 16.8598 6.749 17.0501 6.74768 17.2491C6.74637 17.448 6.82416 17.6394 6.96393 17.781C7.10369 17.9226 7.294 18.0029 7.49298 18.0042C7.69195 18.0056 7.8833 17.9278 8.02492 17.788L18.9699 6.84C19.1789 6.63107 19.3446 6.38303 19.4577 6.11004C19.5707 5.83706 19.6289 5.54448 19.6289 5.249C19.6289 4.95352 19.5707 4.66094 19.4577 4.38796C19.3446 4.11497 19.1789 3.86793 18.9699 3.659Z" fill="black"/>
</svg>
