<svg width="24" height="24" viewBox="0 0 24 24" fill="none" xmlns="http://www.w3.org/2000/svg">
<path d="M7.5 21C7.30109 21 7.11032 20.921 6.96967 20.7803C6.82902 20.6397 6.75 20.4489 6.75 20.25V3.75C6.75006 3.6183 6.7848 3.48894 6.85072 3.37493C6.91664 3.26092 7.01141 3.16627 7.12552 3.10052C7.23963 3.03476 7.36904 3.00021 7.50073 3.00034C7.63243 3.00046 7.76177 3.03527 7.87575 3.10125L22.1257 11.3513C22.2394 11.4172 22.3337 11.5118 22.3993 11.6257C22.4649 11.7395 22.4994 11.8686 22.4994 12C22.4994 12.1314 22.4649 12.2605 22.3993 12.3743C22.3337 12.4882 22.2394 12.5828 22.1257 12.6487L7.87575 20.8987C7.76162 20.965 7.63199 21 7.5 21ZM3 3H4.5V21H3V3Z" fill="black"/>
</svg>
