<svg width="24" height="24" viewBox="0 0 24 24" fill="none" xmlns="http://www.w3.org/2000/svg">
<path d="M16.707 7.404C16.518 7.216 16.259 7.121 16 7.121C15.741 7.121 15.482 7.216 15.293 7.404L13 9.697V3C13 2.73478 12.8946 2.48043 12.7071 2.29289C12.5196 2.10536 12.2652 2 12 2C11.7348 2 11.4804 2.10536 11.2929 2.29289C11.1054 2.48043 11 2.73478 11 3V9.697L8.707 7.404C8.61435 7.31081 8.50419 7.23687 8.38285 7.1864C8.26152 7.13594 8.13141 7.10997 8 7.10997C7.86859 7.10997 7.73848 7.13594 7.61715 7.1864C7.49581 7.23687 7.38565 7.31081 7.293 7.404C7.10553 7.59153 7.00021 7.84584 7.00021 8.111C7.00021 8.37616 7.10553 8.63047 7.293 8.818L12 13.5L16.709 8.816C16.8956 8.62829 17.0002 8.37426 16.9998 8.10959C16.9994 7.84491 16.8941 7.59118 16.707 7.404ZM20.987 16C20.9913 15.8932 20.9781 15.7865 20.948 15.684L18.948 9.684C18.882 9.48479 18.7548 9.31147 18.5846 9.18867C18.4144 9.06588 18.2099 8.99986 18 9H17.781C17.687 9.188 17.571 9.368 17.414 9.525L15.932 11H17.28L18.947 16H5.054L6.721 11H8.069L6.586 9.525C6.4357 9.37131 6.31172 9.19394 6.219 9H6C5.79013 8.99986 5.58556 9.06588 5.41537 9.18867C5.24518 9.31147 5.11803 9.48479 5.052 9.684L3.052 15.684C3.02186 15.7865 3.00869 15.8932 3.013 16C3 16 3 21 3 21C3 21.2652 3.10536 21.5196 3.29289 21.7071C3.48043 21.8946 3.73478 22 4 22H20C20.2652 22 20.5196 21.8946 20.7071 21.7071C20.8946 21.5196 21 21.2652 21 21C21 21 21 16 20.987 16Z" fill="#2E3192"/>
</svg>
