<svg width="24" height="24" viewBox="0 0 24 24" fill="none" xmlns="http://www.w3.org/2000/svg">
<path d="M20.9299 14C20.689 15.6661 19.8559 17.1897 18.5832 18.2916C17.3105 19.3935 15.6834 20 13.9999 20H5.49994V18H13.9999C15.326 18 16.5978 17.4732 17.5355 16.5355C18.4732 15.5979 18.9999 14.3261 18.9999 13C18.9999 11.6739 18.4732 10.4021 17.5355 9.46447C16.5978 8.52678 15.326 8 13.9999 8H6.91394L9.41394 10.5L7.99994 11.914L3.08594 7L7.99994 2.086L9.41394 3.5L6.91394 6H13.9999C15.8565 6 17.6369 6.7375 18.9497 8.05025C20.2624 9.36301 20.9999 11.1435 20.9999 13V14H20.9299Z" fill="black"/>
</svg>
