<svg width="40" height="36" viewBox="0 0 40 36" fill="none" xmlns="http://www.w3.org/2000/svg">
<path d="M38.8889 29.6875L23.7066 2.99178C23.3272 2.33774 22.7856 1.79545 22.1354 1.41865C21.4853 1.04185 20.7491 0.843628 20 0.843628C19.2508 0.843628 18.5147 1.04185 17.8646 1.41865C17.2144 1.79545 16.6728 2.33774 16.2934 2.99178L1.1111 29.6875C0.746057 30.3201 0.55368 31.0396 0.55368 31.7723C0.55368 32.5049 0.746057 33.2244 1.1111 33.857C1.48563 34.515 2.02632 35.0602 2.6777 35.4368C3.32907 35.8134 4.06767 36.0077 4.8177 35.9998H35.1823C35.9317 36.007 36.6696 35.8124 37.3203 35.4359C37.971 35.0594 38.5112 34.5145 38.8854 33.857C39.251 33.2247 39.4439 32.5054 39.4446 31.7727C39.4452 31.0401 39.2534 30.3204 38.8889 29.6875ZM18.6111 14.9062C18.6111 14.5332 18.7574 14.1755 19.0179 13.9118C19.2784 13.6481 19.6316 13.4999 20 13.4999C20.3683 13.4999 20.7216 13.6481 20.9821 13.9118C21.2425 14.1755 21.3889 14.5332 21.3889 14.9062V21.9374C21.3889 22.3103 21.2425 22.668 20.9821 22.9317C20.7216 23.1954 20.3683 23.3436 20 23.3436C19.6316 23.3436 19.2784 23.1954 19.0179 22.9317C18.7574 22.668 18.6111 22.3103 18.6111 21.9374V14.9062ZM20 30.3748C19.5879 30.3748 19.1852 30.2511 18.8425 30.0193C18.4999 29.7875 18.2329 29.4581 18.0752 29.0727C17.9176 28.6872 17.8763 28.2631 17.9567 27.8539C18.0371 27.4448 18.2355 27.0689 18.5268 26.7739C18.8182 26.4789 19.1894 26.278 19.5935 26.1966C19.9977 26.1152 20.4166 26.157 20.7972 26.3166C21.1779 26.4763 21.5033 26.7467 21.7322 27.0935C21.9611 27.4404 22.0833 27.8482 22.0833 28.2654C22.0833 28.8249 21.8638 29.3614 21.4731 29.757C21.0824 30.1526 20.5525 30.3748 20 30.3748Z" fill="#FBBF09"/>
</svg>
