<svg width="234" height="36" viewBox="0 0 234 36" fill="none" xmlns="http://www.w3.org/2000/svg">
<path d="M28.125 3.375H10.125C9.52826 3.375 8.95597 3.61206 8.53402 4.03402C8.11206 4.45597 7.875 5.02826 7.875 5.625V9H5.625C5.02826 9 4.45597 9.23706 4.03402 9.65902C3.61206 10.081 3.375 10.6533 3.375 11.25V24.75C3.375 25.3467 3.61206 25.9191 4.03402 26.341C4.45597 26.7629 5.02826 27 5.625 27H7.875V30.375C7.875 30.9717 8.11206 31.5441 8.53402 31.966C8.95597 32.3879 9.52826 32.625 10.125 32.625H28.125C28.7217 32.625 29.2941 32.3879 29.716 31.966C30.1379 31.5441 30.375 30.9717 30.375 30.375V5.625C30.375 5.02826 30.1379 4.45597 29.716 4.03402C29.2941 3.61206 28.7217 3.375 28.125 3.375ZM10.125 22.5C9.91116 22.5 9.70173 22.4392 9.52124 22.3245C9.34076 22.2098 9.1967 22.046 9.10593 21.8525C9.01517 21.6589 8.98148 21.4434 9.0088 21.2314C9.03611 21.0191 9.1233 20.8193 9.26015 20.655L11.4736 18L9.26015 15.345C9.06919 15.1156 8.97718 14.8198 9.00434 14.5226C9.03152 14.2254 9.17563 13.9511 9.405 13.7602C9.63437 13.5692 9.9302 13.4772 10.2274 13.5043C10.5246 13.5315 10.7989 13.6756 10.9898 13.905L12.9375 16.2422L14.8852 13.905C14.9797 13.7914 15.0957 13.6976 15.2265 13.6288C15.3573 13.5601 15.5004 13.5178 15.6476 13.5043C15.7947 13.4909 15.9431 13.5066 16.0842 13.5505C16.2253 13.5944 16.3564 13.6656 16.47 13.7602C16.5836 13.8547 16.6774 13.9707 16.7462 14.1015C16.8149 14.2323 16.8572 14.3754 16.8707 14.5226C16.8841 14.6697 16.8684 14.8181 16.8245 14.9592C16.7806 15.1003 16.7094 15.2314 16.6148 15.345L14.4014 18L16.6148 20.655C16.8058 20.8843 16.8978 21.1802 16.8707 21.4774C16.8435 21.7746 16.6994 22.0489 16.47 22.2399C16.2406 22.4309 15.9448 22.5229 15.6476 22.4957C15.3504 22.4685 15.0761 22.3243 14.8852 22.095L12.9375 19.7579L10.9898 22.095C10.8842 22.2217 10.752 22.3238 10.6025 22.3938C10.4531 22.4638 10.29 22.5 10.125 22.5ZM18 30.375H10.125V27H18V30.375ZM18 9H10.125V5.625H18V9ZM28.125 30.375H20.25V27C20.8467 27 21.4191 26.7629 21.841 26.341C22.2629 25.9191 22.5 25.3467 22.5 24.75V23.625H28.125V30.375ZM28.125 21.375H22.5V14.625H28.125V21.375ZM28.125 12.375H22.5V11.25C22.5 10.6533 22.2629 10.081 21.841 9.65902C21.4191 9.23706 20.8467 9 20.25 9V5.625H28.125V12.375Z" fill="black"/>
<path d="M39.456 30.6C38.9759 30.6 38.6879 30.5519 38.592 30.456C38.4961 30.384 38.448 30.0839 38.448 29.556V6.58797C38.448 6.10796 38.484 5.83197 38.556 5.75997C38.6519 5.66398 38.9281 5.61597 39.384 5.61597H51.012C51.2761 5.61597 51.4319 5.66398 51.48 5.75997C51.5281 5.83197 51.552 5.97597 51.552 6.19197V8.78397C51.552 9.02396 51.516 9.19198 51.444 9.28797C51.372 9.35997 51.228 9.39597 51.012 9.39597H42.408V15.912H50.544C50.904 15.912 51.084 16.104 51.084 16.488V19.08C51.084 19.488 50.904 19.692 50.544 19.692H42.408V26.82H51.444C51.7801 26.82 51.948 27.0239 51.948 27.432V30.024C51.948 30.4079 51.7801 30.6 51.444 30.6H39.456ZM67.752 30.6C67.5599 30.6 67.428 30.564 67.356 30.492C67.284 30.4439 67.2241 30.396 67.176 30.348L63 21.996L58.824 30.348C58.7759 30.42 58.716 30.4799 58.644 30.528C58.572 30.576 58.428 30.6 58.212 30.6H55.044C54.828 30.6 54.6961 30.5519 54.648 30.456C54.6241 30.36 54.6359 30.252 54.684 30.132L60.876 17.64L55.152 6.04797C55.1039 5.92796 55.1039 5.83197 55.152 5.75997C55.224 5.66398 55.3919 5.61597 55.656 5.61597H58.644C59.004 5.61597 59.22 5.68797 59.292 5.83197L63 13.428L66.672 5.83197C66.744 5.68797 66.96 5.61597 67.32 5.61597H70.308C70.5721 5.61597 70.7279 5.66398 70.776 5.75997C70.848 5.83197 70.8601 5.92796 70.812 6.04797L65.088 17.64L71.28 30.132C71.3281 30.252 71.3281 30.36 71.28 30.456C71.2561 30.5519 71.136 30.6 70.92 30.6H67.752ZM87.228 30.168C86.6759 30.36 86.0881 30.54 85.464 30.708C84.8641 30.8759 84.1801 30.96 83.412 30.96C82.1641 30.96 80.928 30.6239 79.704 29.952C78.48 29.304 77.436 28.368 76.572 27.144C75.708 25.896 75.0479 24.48 74.592 22.896C74.16 21.312 73.944 19.692 73.944 18.036C73.944 16.38 74.16 14.76 74.592 13.176C75.0479 11.592 75.6959 10.212 76.536 9.03597C77.4 7.85998 78.444 6.93596 79.668 6.26397C80.9159 5.59198 82.1641 5.25597 83.412 5.25597C83.988 5.25597 84.6 5.31596 85.248 5.43597C85.9199 5.53196 86.5921 5.71196 87.264 5.97597C87.4561 6.04797 87.5641 6.13198 87.588 6.22797C87.6361 6.32396 87.6479 6.49198 87.624 6.73197L87.588 9.46797C87.588 9.80398 87.5399 9.98398 87.444 10.008C87.3481 10.008 87.1799 9.95996 86.94 9.86397C85.8361 9.31196 84.6599 9.03597 83.412 9.03597C82.5719 9.03597 81.792 9.27596 81.072 9.75597C80.352 10.212 79.7639 10.896 79.308 11.808C78.8521 12.696 78.5039 13.704 78.264 14.832C78.0241 15.936 77.904 17.004 77.904 18.036C77.904 19.0679 78.0359 20.16 78.3 21.312C78.5641 22.44 78.9241 23.448 79.38 24.336C79.8359 25.2239 80.4479 25.92 81.216 26.424C81.9841 26.928 82.7519 27.18 83.52 27.18C84.0721 27.18 84.6239 27.12 85.176 27C85.752 26.8799 86.3401 26.6999 86.94 26.46C87.1799 26.3399 87.336 26.3039 87.408 26.352C87.48 26.4 87.516 26.496 87.516 26.64L87.624 29.412C87.6479 29.628 87.6361 29.784 87.588 29.88C87.5399 30 87.4201 30.096 87.228 30.168ZM93.456 30.6C92.9759 30.6 92.6879 30.5519 92.592 30.456C92.4961 30.384 92.448 30.0839 92.448 29.556V6.58797C92.448 6.10796 92.484 5.83197 92.556 5.75997C92.6519 5.66398 92.9281 5.61597 93.384 5.61597H105.012C105.276 5.61597 105.432 5.66398 105.48 5.75997C105.528 5.83197 105.552 5.97597 105.552 6.19197V8.78397C105.552 9.02396 105.516 9.19198 105.444 9.28797C105.372 9.35997 105.228 9.39597 105.012 9.39597H96.408V15.912H104.544C104.904 15.912 105.084 16.104 105.084 16.488V19.08C105.084 19.488 104.904 19.692 104.544 19.692H96.408V26.82H105.444C105.78 26.82 105.948 27.0239 105.948 27.432V30.024C105.948 30.4079 105.78 30.6 105.444 30.6H93.456ZM111.204 30.6C111.084 30.6 110.976 30.5519 110.88 30.456C110.808 30.384 110.772 30.288 110.772 30.168V6.04797C110.772 5.92796 110.808 5.83197 110.88 5.75997C110.976 5.66398 111.084 5.61597 111.204 5.61597H114.408C114.528 5.61597 114.624 5.66398 114.696 5.75997C114.792 5.83197 114.84 5.92796 114.84 6.04797V26.82H123.48C123.768 26.82 123.912 26.976 123.912 27.288V30.168C123.912 30.288 123.864 30.384 123.768 30.456C123.696 30.5519 123.6 30.6 123.48 30.6H111.204ZM129.456 30.6C128.976 30.6 128.688 30.5519 128.592 30.456C128.496 30.384 128.448 30.0839 128.448 29.556V6.58797C128.448 6.10796 128.484 5.83197 128.556 5.75997C128.652 5.66398 128.928 5.61597 129.384 5.61597H141.012C141.276 5.61597 141.432 5.66398 141.48 5.75997C141.528 5.83197 141.552 5.97597 141.552 6.19197V8.78397C141.552 9.02396 141.516 9.19198 141.444 9.28797C141.372 9.35997 141.228 9.39597 141.012 9.39597H132.408V15.912H140.544C140.904 15.912 141.084 16.104 141.084 16.488V19.08C141.084 19.488 140.904 19.692 140.544 19.692H132.408V26.82H141.444C141.78 26.82 141.948 27.0239 141.948 27.432V30.024C141.948 30.4079 141.78 30.6 141.444 30.6H129.456ZM158.112 30.6C157.848 30.6 157.668 30.5879 157.572 30.564C157.476 30.54 157.368 30.4439 157.248 30.276L152.244 20.772H149.976V30.204C149.976 30.468 149.82 30.6 149.508 30.6H146.448C146.16 30.6 146.016 30.468 146.016 30.204V6.01197C146.016 5.89196 146.052 5.79597 146.124 5.72397C146.22 5.65197 146.328 5.61597 146.448 5.61597H151.812C154.452 5.61597 156.48 6.32396 157.896 7.73997C159.312 9.13196 160.02 10.932 160.02 13.14C160.02 14.748 159.648 16.14 158.904 17.316C158.184 18.468 157.2 19.332 155.952 19.908L161.604 30.168C161.796 30.456 161.664 30.6 161.208 30.6H158.112ZM149.976 9.39597V17.028H151.74C153.084 17.028 154.128 16.716 154.872 16.092C155.616 15.444 155.988 14.472 155.988 13.176C155.988 11.856 155.64 10.896 154.944 10.296C154.248 9.69598 153.336 9.39597 152.208 9.39597H149.976ZM176.184 30.6C176.04 30.6 175.932 30.564 175.86 30.492C175.788 30.4439 175.716 30.276 175.644 29.988L174.168 23.76H167.868L166.392 29.988C166.344 30.324 166.284 30.504 166.212 30.528C166.14 30.576 166.02 30.6 165.852 30.6H163.008C162.576 30.6 162.432 30.396 162.576 29.988L168.768 6.01197C168.84 5.81996 168.888 5.71196 168.912 5.68797C168.96 5.63996 169.104 5.61597 169.344 5.61597H172.692C172.908 5.61597 173.04 5.63996 173.088 5.68797C173.136 5.71196 173.196 5.81996 173.268 6.01197L179.46 29.988C179.58 30.396 179.436 30.6 179.028 30.6H176.184ZM168.732 19.98H173.268L171 10.008L168.732 19.98ZM191.016 9.39597V30.168C191.016 30.456 190.872 30.6 190.584 30.6H187.38C187.092 30.6 186.948 30.456 186.948 30.168V9.39597H181.296C181.175 9.39597 181.067 9.35997 180.972 9.28797C180.9 9.19198 180.864 9.07197 180.864 8.92797V6.04797C180.864 5.92796 180.9 5.83197 180.972 5.75997C181.067 5.66398 181.175 5.61597 181.296 5.61597H196.704C196.825 5.61597 196.92 5.66398 196.992 5.75997C197.087 5.83197 197.136 5.92796 197.136 6.04797V8.92797C197.136 9.23996 196.992 9.39597 196.704 9.39597H191.016ZM207.036 31.212C204.467 31.212 202.572 29.9759 201.348 27.504C200.124 25.032 199.512 21.936 199.512 18.216C199.512 17.424 199.597 16.212 199.764 14.58C199.957 12.924 200.327 11.4 200.88 10.008C201.456 8.59196 202.225 7.43996 203.184 6.55197C204.169 5.66398 205.452 5.21997 207.036 5.21997C208.044 5.21997 208.944 5.43597 209.736 5.86797C210.528 6.27598 211.199 6.83997 211.752 7.55997C212.305 8.25598 212.747 9.07197 213.084 10.008C213.444 10.944 213.732 11.94 213.948 12.996C214.164 14.052 214.308 15.12 214.38 16.2C214.452 17.28 214.488 17.952 214.488 18.216C214.488 19.704 214.331 21.324 214.02 23.076C213.709 24.8279 213.241 26.3039 212.616 27.504C212.017 28.704 211.261 29.6159 210.348 30.24C209.435 30.888 208.332 31.212 207.036 31.212ZM207 9.07197C206.424 9.07197 205.897 9.26398 205.416 9.64797C204.961 10.008 204.565 10.596 204.228 11.412C203.891 12.204 203.629 13.248 203.436 14.544C203.269 15.84 203.184 17.064 203.184 18.216C203.184 19.3919 203.269 20.628 203.436 21.924C203.629 23.22 203.891 24.276 204.228 25.092C204.565 25.884 204.961 26.472 205.416 26.856C205.897 27.216 206.424 27.396 207 27.396C207.553 27.396 208.057 27.216 208.512 26.856C208.993 26.472 209.399 25.884 209.736 25.092C210.073 24.276 210.325 23.22 210.492 21.924C210.685 20.628 210.78 19.3919 210.78 18.216C210.78 17.064 210.685 15.84 210.492 14.544C210.325 13.248 210.073 12.204 209.736 11.412C209.399 10.596 208.993 10.008 208.512 9.64797C208.057 9.26398 207.553 9.07197 207 9.07197ZM230.112 30.6C229.847 30.6 229.667 30.5879 229.572 30.564C229.477 30.54 229.369 30.4439 229.248 30.276L224.244 20.772H221.976V30.204C221.976 30.468 221.819 30.6 221.508 30.6H218.448C218.16 30.6 218.016 30.468 218.016 30.204V6.01197C218.016 5.89196 218.052 5.79597 218.124 5.72397C218.219 5.65197 218.327 5.61597 218.448 5.61597H223.812C226.453 5.61597 228.479 6.32396 229.896 7.73997C231.313 9.13196 232.02 10.932 232.02 13.14C232.02 14.748 231.647 16.14 230.904 17.316C230.184 18.468 229.199 19.332 227.952 19.908L233.604 30.168C233.797 30.456 233.663 30.6 233.208 30.6H230.112ZM221.976 9.39597V17.028H223.74C225.085 17.028 226.129 16.716 226.872 16.092C227.615 15.444 227.988 14.472 227.988 13.176C227.988 11.856 227.641 10.896 226.944 10.296C226.247 9.69598 225.337 9.39597 224.208 9.39597H221.976Z" fill="black"/>
</svg>
